<svg xmlns="http://www.w3.org/2000/svg" version="1.1" xmlns:xlink="http://www.w3.org/1999/xlink" xmlns:svgjs="http://svgjs.com/svgjs" width="1440" height="560" preserveAspectRatio="none" viewBox="0 0 1440 560"><g mask="url(&quot;#SvgjsMask1028&quot;)" fill="none"><rect width="1440" height="560" x="0" y="0" fill="url(#SvgjsLinearGradient1029)"></rect><path d="M81.208,167.244C117.686,168.827,160.823,169.334,179.039,137.691C197.236,106.082,175.021,69.119,155.393,38.378C137.762,10.765,113.951,-14.402,81.208,-15.528C46.707,-16.715,14.922,3.076,-2.377,32.95C-19.715,62.891,-21.225,100.419,-2.942,129.793C14.447,157.731,48.332,165.817,81.208,167.244" fill="rgba(28, 83, 142, 0.4)" class="triangle-float1"></path><path d="M83.44294307350367-73.10889627630877L-57.45371234132756 18.390461606215794 34.045645541197004 159.28711702104704 174.94230095602825 67.78775913852246z" fill="rgba(28, 83, 142, 0.4)" class="triangle-float2"></path><path d="M-3.9236887125525612 173.60686099587608L155.85380602503324 121.69200594088488 103.93895097004203-38.0854887967009-55.838543767543754 13.829366258290293z" fill="rgba(28, 83, 142, 0.4)" class="triangle-float2"></path><path d="M1408.36,187.256C1444.05,186.492,1469.876,157.092,1487.214,125.887C1503.941,95.783,1513.468,59.439,1495.805,29.874C1478.479,0.873,1442.1,-7.783,1408.36,-6.104C1377.775,-4.582,1351.058,11.941,1334.795,37.888C1317.3,65.8,1308.879,99.84,1323.434,129.392C1339.655,162.328,1371.654,188.042,1408.36,187.256" fill="rgba(28, 83, 142, 0.4)" class="triangle-float3"></path><path d="M1429.2488978896579 137.6311726663436L1429.4320543546169-54.55383602273304 1282.4959435551984 26.894180178651595z" fill="rgba(28, 83, 142, 0.4)" class="triangle-float2"></path><path d="M1409.1855024478673-73.56817776240695L1269.9071902586202 20.37623002067852 1363.8515980417058 159.65454220992552 1503.1299102309526 65.71013442684006z" fill="rgba(28, 83, 142, 0.4)" class="triangle-float2"></path><path d="M-30.5953738081319 404.3834177596314L-42.31446139714495 571.9741782032819 125.27629904650551 583.6932657922949 136.99538663551854 416.10250534864446z" fill="rgba(28, 83, 142, 0.4)" class="triangle-float2"></path><path d="M115.92368871255255 386.3931390041239L-43.853806025033236 438.30799405911506 167.8385437675437 546.1706337417097z" fill="rgba(28, 83, 142, 0.4)" class="triangle-float3"></path><path d="M162.78479519263436 581.5836950517913L136.50380506587555 415.6520538318082-29.42783615410758 441.933043958567-3.146846027348772 607.8646851785501z" fill="rgba(28, 83, 142, 0.4)" class="triangle-float2"></path><path d="M1469.724,749.575C1523.761,750.429,1565.045,707.161,1591.756,660.179C1618.092,613.855,1631.802,557.679,1605.01,511.617C1578.335,465.758,1522.701,447.542,1469.724,450.383C1421.647,452.961,1380.981,482.898,1357.434,524.893C1334.444,565.894,1333.178,614.379,1354.193,656.427C1377.896,703.854,1416.711,748.738,1469.724,749.575" fill="rgba(28, 83, 142, 0.4)" class="triangle-float2"></path><path d="M1295.679266005581 602.0901124931017L1463.4490278443493 593.2976718442872 1454.6565871955347 425.5279100055187 1286.8868253567664 434.3203506543333z" fill="rgba(28, 83, 142, 0.4)" class="triangle-float3"></path><path d="M1297.1191941682875 554.5629752578028L1385.3763985722403 623.5170604942766 1444.6789242249745 456.65421127011047z" fill="rgba(28, 83, 142, 0.4)" class="triangle-float2"></path></g><defs><mask id="SvgjsMask1028"><rect width="1440" height="560" fill="#ffffff"></rect></mask><linearGradient x1="15.28%" y1="-39.29%" x2="84.72%" y2="139.29%" gradientUnits="userSpaceOnUse" id="SvgjsLinearGradient1029"><stop stop-color="#0e2a47" offset="0"></stop><stop stop-color="#00459e" offset="1"></stop></linearGradient><style>
            @keyframes float1 {
                0%{transform: translate(0, 0)}
                50%{transform: translate(-10px, 0)}
                100%{transform: translate(0, 0)}
            }

            .triangle-float1 {
                animation: float1 5s infinite;
            }

            @keyframes float2 {
                0%{transform: translate(0, 0)}
                50%{transform: translate(-5px, -5px)}
                100%{transform: translate(0, 0)}
            }

            .triangle-float2 {
                animation: float2 4s infinite;
            }

            @keyframes float3 {
                0%{transform: translate(0, 0)}
                50%{transform: translate(0, -10px)}
                100%{transform: translate(0, 0)}
            }

            .triangle-float3 {
                animation: float3 6s infinite;
            }
        </style></defs></svg>